<?xml version="1.0" standalone="no"?>
<!DOCTYPE svg PUBLIC "-//W3C//DTD SVG 20010904//EN"
 "http://www.w3.org/TR/2001/REC-SVG-20010904/DTD/svg10.dtd">
<svg version="1.0" xmlns="http://www.w3.org/2000/svg"
 width="125.000000pt" height="125.000000pt" viewBox="0 0 125.000000 125.000000"
 preserveAspectRatio="xMidYMid meet">
<metadata>
Created by potrace 1.14, written by Peter Selinger 2001-2017
</metadata>
<g transform="translate(0.000000,125.000000) scale(0.100000,-0.100000)"
fill="#000000" stroke="none">
<path d="M0 625 l0 -625 625 0 625 0 0 625 0 625 -625 0 -625 0 0 -625z m789
355 c50 -12 99 -31 118 -46 l33 -25 0 -148 c0 -148 0 -149 25 -165 23 -15 25
-23 25 -86 0 -72 -17 -107 -47 -96 -8 3 -29 7 -46 8 -19 1 -9 4 23 7 l55 6 0
75 0 75 -50 6 c-27 3 -38 7 -22 7 l27 2 0 144 c0 79 -3 152 -6 161 -9 23 -48
41 -145 65 -70 19 -101 21 -189 17 -112 -6 -153 -14 -145 -28 3 -4 13 -5 23
-2 15 6 15 5 2 -11 -8 -11 -16 -14 -18 -7 -2 6 -9 8 -14 5 -7 -4 -8 -2 -4 4
10 17 -16 15 -65 -4 -25 -10 -44 -26 -50 -41 -5 -13 -9 -87 -9 -164 l0 -139
33 -2 c23 -1 18 -3 -18 -7 l-50 -6 -3 -69 c-2 -38 2 -74 7 -79 6 -6 33 -10 60
-8 33 1 52 -3 58 -12 14 -24 122 -106 174 -132 l50 -26 68 36 c69 37 158 109
153 126 -1 5 2 9 8 9 21 0 8 -20 -46 -68 -73 -65 -166 -116 -197 -107 -35 11
-117 64 -180 118 -52 45 -62 49 -96 44 -62 -8 -71 3 -71 88 0 64 3 77 20 87
19 12 20 24 20 160 0 138 1 148 23 173 21 25 66 42 167 65 70 15 212 10 299
-10z m-276 -43 c3 -8 -1 -14 -9 -14 -8 0 -14 6 -14 14 0 7 4 13 9 13 5 0 11
-6 14 -13z m-23 -32 c15 -18 9 -38 -13 -41 -14 -2 -17 3 -13 19 3 12 3 16 0
10 -8 -17 -24 -16 -24 1 0 13 13 23 31 25 4 1 12 -6 19 -14z m276 7 c6 -4 10
-15 8 -24 -1 -10 3 -18 10 -18 6 0 13 -8 14 -17 12 -102 12 -108 2 -85 -5 12
-12 22 -15 22 -4 0 -3 -4 0 -10 7 -11 -8 -14 -18 -4 -8 8 3 35 12 30 4 -3 7 4
7 15 0 23 -3 23 -22 4 -21 -21 -34 -19 -34 6 0 15 -5 19 -15 15 -12 -4 -14 0
-9 22 4 15 13 33 22 40 18 14 23 14 38 4z m-246 -69 c-11 -17 -11 -17 -6 0 3
10 6 24 7 30 0 9 2 9 5 0 3 -7 0 -20 -6 -30z m62 -43 c-2 -19 -8 -41 -14 -47
-7 -9 -7 -13 1 -13 15 0 5 -38 -15 -58 -8 -7 -14 -18 -14 -23 0 -5 -5 -9 -11
-9 -5 0 -7 5 -4 10 3 6 -4 10 -17 10 -14 0 -38 14 -56 33 -36 37 -33 55 4 31
13 -9 29 -12 35 -8 7 4 9 3 5 -4 -3 -6 -2 -13 4 -17 10 -6 14 7 11 33 -1 6 6
12 16 12 13 0 14 3 5 12 -17 17 -15 38 5 60 27 30 49 19 45 -22z m-72 -15 c0
-30 -16 -33 -23 -5 -3 11 -1 18 4 14 5 -3 9 0 9 5 0 6 2 11 5 11 3 0 5 -11 5
-25z m224 19 c13 -5 15 -17 10 -65 -5 -56 -4 -59 20 -65 13 -3 34 0 46 6 12 6
24 9 28 6 8 -9 3 -11 -61 -34 l-58 -20 -10 26 c-6 15 -8 44 -6 65 5 34 4 37
-9 20 -12 -17 -13 -16 -14 9 0 15 7 34 16 42 18 18 17 18 38 10z m-377 -56
c-3 -7 -5 -2 -5 12 0 14 2 19 5 13 2 -7 2 -19 0 -25z m253 15 c-1 -10 -8 -29
-16 -43 -8 -14 -13 -17 -10 -7 3 10 6 30 6 43 0 13 5 24 10 24 6 0 10 -8 10
-17z m-133 -15 c-3 -8 -6 -5 -6 6 -1 11 2 17 5 13 3 -3 4 -12 1 -19z m186 -51
c8 -21 -4 -107 -14 -101 -12 7 -12 114 0 114 5 0 11 -6 14 -13z m-86 -64 c-3
-10 -5 -4 -5 12 0 17 2 24 5 18 2 -7 2 -21 0 -30z m-58 -25 c1 -5 -3 -8 -9 -8
-5 0 -10 12 -9 28 0 24 1 25 9 7 5 -11 9 -23 9 -27z m217 18 c15 4 24 2 24 -5
0 -6 -18 -11 -41 -11 -37 0 -40 2 -28 16 8 10 15 12 17 5 2 -6 14 -8 28 -5z
m-300 -109 c-8 -46 -13 -57 -28 -57 -7 0 -9 15 -5 40 5 39 4 40 -24 40 -16 0
-29 -4 -29 -10 0 -5 5 -10 10 -10 6 0 10 -4 10 -10 0 -5 -7 -10 -15 -10 -8 0
-15 -9 -15 -20 0 -12 -7 -20 -16 -20 -12 0 -14 7 -9 33 14 69 12 68 72 66 l55
-2 -6 -40z m156 9 l15 -31 7 33 c5 19 14 32 23 32 14 0 13 -23 -3 -82 -8 -27
-29 -22 -44 10 l-13 27 -9 -27 c-9 -27 -41 -41 -34 -15 17 53 16 67 -4 67 -13
0 -22 -9 -26 -27 -10 -46 -13 -53 -25 -53 -8 0 -10 13 -6 40 4 30 2 40 -9 40
-8 0 -14 5 -14 10 0 6 27 10 64 9 61 -1 64 -3 78 -33z m148 24 c0 -5 -11 -10
-25 -10 -14 0 -25 -4 -25 -10 0 -5 5 -10 10 -10 6 0 10 -4 10 -10 0 -5 -7 -10
-15 -10 -8 0 -15 -4 -15 -10 0 -16 97 -16 114 1 6 5 0 9 -16 9 -33 0 -42 13
-28 40 8 15 21 20 50 20 22 0 40 -4 40 -10 0 -5 -13 -10 -30 -10 -16 0 -30 -4
-30 -10 0 -5 9 -10 19 -10 25 0 32 -11 24 -38 -5 -20 -11 -22 -90 -22 l-86 0
7 42 c4 22 9 45 12 50 7 11 74 10 74 -2z m200 0 c0 -5 -13 -10 -30 -10 -16 0
-30 -4 -30 -10 0 -5 9 -10 19 -10 25 0 34 -14 26 -40 -5 -16 -15 -20 -46 -20
-21 0 -39 5 -39 10 0 6 14 10 30 10 17 0 30 5 30 10 0 6 -11 10 -25 10 -20 0
-25 5 -25 23 0 13 3 27 7 30 10 11 83 8 83 -3z m-400 -150 c-8 -5 -11 -13 -6
-17 4 -4 13 0 20 10 7 9 23 17 35 17 23 0 26 -7 11 -30 -8 -13 -10 -12 -10 3
0 9 -4 17 -10 17 -5 0 -10 -7 -10 -15 0 -10 -10 -15 -30 -15 -18 0 -30 5 -30
13 0 18 10 27 29 27 14 0 14 -2 1 -10z m210 1 c-1 -24 -40 -40 -40 -16 0 8 -5
15 -11 15 -6 0 -9 -7 -5 -15 3 -9 0 -15 -9 -15 -9 0 -12 6 -9 15 4 8 1 15 -5
15 -6 0 -12 -8 -12 -17 -1 -17 -2 -17 -6 0 -5 21 -23 23 -23 2 0 -8 -4 -15
-10 -15 -12 0 -12 3 -4 24 5 13 20 16 70 15 35 -1 64 -4 64 -8z"/>
<path d="M725 870 c-3 -6 1 -7 9 -4 18 7 21 14 7 14 -6 0 -13 -4 -16 -10z"/>
</g>
</svg>
